<?xml version="1.0" encoding="UTF-8"?>
<svg xmlns="http://www.w3.org/2000/svg" xmlns:xlink="http://www.w3.org/1999/xlink" width="512pt" height="512pt" viewBox="0 0 512 512" version="1.1">
<g id="surface4602210">
<path style=" stroke:none;fill-rule:nonzero;fill:rgb(3.921569%,75.686275%,64.705882%);fill-opacity:1;" d="M 256 64 C 149.960938 64 64 149.960938 64 256 C 64 362.039062 149.960938 448 256 448 C 362.039062 448 448 362.039062 448 256 C 448 149.960938 362.039062 64 256 64 Z M 256 64 "/>
<path style=" stroke:none;fill-rule:nonzero;fill:rgb(54.901961%,81.176471%,72.54902%);fill-opacity:1;" d="M 256 100 C 169.84375 100 100 169.84375 100 256 C 100 342.15625 169.84375 412 256 412 C 342.15625 412 412 342.15625 412 256 C 412 169.84375 342.15625 100 256 100 Z M 256 100 "/>
<path style="fill:none;stroke-width:8.0625;stroke-linecap:butt;stroke-linejoin:miter;stroke:rgb(26.666667%,29.411765%,32.941176%);stroke-opacity:1;stroke-miterlimit:10;" d="M 86 21.5 C 50.377502 21.5 21.5 50.377502 21.5 86 C 21.5 121.622498 50.377502 150.5 86 150.5 C 121.622498 150.5 150.5 121.622498 150.5 86 C 150.5 50.377502 121.622498 21.5 86 21.5 Z M 86 21.5 " transform="matrix(2.976744,0,0,2.976744,0,0)"/>
<path style="fill:none;stroke-width:8.0625;stroke-linecap:round;stroke-linejoin:miter;stroke:rgb(3.921569%,75.686275%,64.705882%);stroke-opacity:1;stroke-miterlimit:10;" d="M 56.4375 92.71875 L 74.64505 108.84375 L 115.5625 61.8125 " transform="matrix(2.976744,0,0,2.976744,0,0)"/>
</g>
</svg>
